<mxfile host="app.diagrams.net" modified="2021-06-01T09:34:45.437Z" agent="5.0 (Windows NT 10.0; Win64; x64) AppleWebKit/537.36 (KHTML, like Gecko) Chrome/90.0.4430.212 Safari/537.36" etag="HcuRPJxaaNFeXo8JcjI7" version="14.7.3" type="github">
  <diagram id="8oiFQwh7EYD4VP7LvUy2" name="Page-1">
    <mxGraphModel dx="2244" dy="840" grid="1" gridSize="10" guides="1" tooltips="1" connect="1" arrows="1" fold="1" page="1" pageScale="1" pageWidth="850" pageHeight="1100" math="0" shadow="0">
      <root>
        <mxCell id="0" />
        <mxCell id="1" parent="0" />
        <mxCell id="scqn5qoiFc7yp6WjG8HU-1" value="Mapping Prediction" style="rounded=0;whiteSpace=wrap;html=1;align=center;verticalAlign=middle;" vertex="1" parent="1">
          <mxGeometry x="605" y="440" width="120" height="60" as="geometry" />
        </mxCell>
        <mxCell id="scqn5qoiFc7yp6WjG8HU-2" value="End Point" style="rounded=0;whiteSpace=wrap;html=1;align=center;verticalAlign=middle;" vertex="1" parent="1">
          <mxGeometry x="150" y="440" width="120" height="60" as="geometry" />
        </mxCell>
        <mxCell id="scqn5qoiFc7yp6WjG8HU-3" value="ML Algorithm" style="rounded=0;whiteSpace=wrap;html=1;align=center;verticalAlign=middle;" vertex="1" parent="1">
          <mxGeometry x="150" y="570" width="120" height="60" as="geometry" />
        </mxCell>
        <mxCell id="scqn5qoiFc7yp6WjG8HU-4" value="ML Algorithm Status" style="rounded=0;whiteSpace=wrap;html=1;align=center;verticalAlign=middle;" vertex="1" parent="1">
          <mxGeometry x="340" y="570" width="120" height="60" as="geometry" />
        </mxCell>
        <mxCell id="scqn5qoiFc7yp6WjG8HU-6" value="GAN Request" style="rounded=0;whiteSpace=wrap;html=1;align=center;verticalAlign=middle;" vertex="1" parent="1">
          <mxGeometry x="605" y="690" width="120" height="60" as="geometry" />
        </mxCell>
        <mxCell id="scqn5qoiFc7yp6WjG8HU-9" value="The architecture is implemented and modified based on https://www.deploymachinelearning.com/, &lt;br&gt;adding a user system and GAN-based map prediction management." style="text;html=1;align=left;verticalAlign=middle;resizable=0;points=[];autosize=1;strokeColor=none;" vertex="1" parent="1">
          <mxGeometry x="65" y="970" width="540" height="30" as="geometry" />
        </mxCell>
        <mxCell id="scqn5qoiFc7yp6WjG8HU-15" style="edgeStyle=orthogonalEdgeStyle;rounded=0;orthogonalLoop=1;jettySize=auto;html=1;exitX=0.5;exitY=0;exitDx=0;exitDy=0;exitPerimeter=0;entryX=1;entryY=0.5;entryDx=0;entryDy=0;" edge="1" parent="1" source="scqn5qoiFc7yp6WjG8HU-10" target="scqn5qoiFc7yp6WjG8HU-12">
          <mxGeometry relative="1" as="geometry" />
        </mxCell>
        <mxCell id="scqn5qoiFc7yp6WjG8HU-22" value="create" style="edgeLabel;html=1;align=center;verticalAlign=middle;resizable=0;points=[];" vertex="1" connectable="0" parent="scqn5qoiFc7yp6WjG8HU-15">
          <mxGeometry x="0.4084" y="-4" relative="1" as="geometry">
            <mxPoint as="offset" />
          </mxGeometry>
        </mxCell>
        <mxCell id="scqn5qoiFc7yp6WjG8HU-10" value="users" style="shape=umlActor;verticalLabelPosition=bottom;verticalAlign=top;html=1;outlineConnect=0;" vertex="1" parent="1">
          <mxGeometry x="940" y="610" width="30" height="60" as="geometry" />
        </mxCell>
        <mxCell id="scqn5qoiFc7yp6WjG8HU-11" value="developers" style="shape=umlActor;verticalLabelPosition=bottom;verticalAlign=top;html=1;outlineConnect=0;" vertex="1" parent="1">
          <mxGeometry x="-190" y="610" width="30" height="60" as="geometry" />
        </mxCell>
        <mxCell id="scqn5qoiFc7yp6WjG8HU-12" value="Custom User" style="rounded=0;whiteSpace=wrap;html=1;align=center;verticalAlign=middle;" vertex="1" parent="1">
          <mxGeometry x="605" y="230" width="120" height="60" as="geometry" />
        </mxCell>
        <mxCell id="scqn5qoiFc7yp6WjG8HU-14" value="" style="endArrow=diamondThin;html=1;entryX=0;entryY=0.5;entryDx=0;entryDy=0;exitX=1;exitY=0.5;exitDx=0;exitDy=0;startArrow=none;startFill=0;endFill=1;" edge="1" parent="1" source="scqn5qoiFc7yp6WjG8HU-13" target="scqn5qoiFc7yp6WjG8HU-12">
          <mxGeometry width="50" height="50" relative="1" as="geometry">
            <mxPoint x="470" y="560" as="sourcePoint" />
            <mxPoint x="520" y="510" as="targetPoint" />
          </mxGeometry>
        </mxCell>
        <mxCell id="scqn5qoiFc7yp6WjG8HU-20" value="" style="group" vertex="1" connectable="0" parent="1">
          <mxGeometry x="420" y="230" width="140" height="80" as="geometry" />
        </mxCell>
        <mxCell id="scqn5qoiFc7yp6WjG8HU-13" value="Profile" style="rounded=0;whiteSpace=wrap;html=1;align=center;verticalAlign=middle;" vertex="1" parent="scqn5qoiFc7yp6WjG8HU-20">
          <mxGeometry width="120" height="60" as="geometry" />
        </mxCell>
        <mxCell id="scqn5qoiFc7yp6WjG8HU-19" value="Component which records user information, which affects conditional constraints of GAN algorithm." style="text;html=1;strokeColor=none;fillColor=none;align=left;verticalAlign=top;whiteSpace=wrap;rounded=0;" vertex="1" parent="scqn5qoiFc7yp6WjG8HU-20">
          <mxGeometry y="60" width="140" height="20" as="geometry" />
        </mxCell>
        <mxCell id="scqn5qoiFc7yp6WjG8HU-21" value="Component which sets permissions in groups for urban researchers, policy makers, and ordinary users to create environments for different groups to participate in urban construction." style="text;html=1;strokeColor=none;fillColor=none;align=left;verticalAlign=top;whiteSpace=wrap;rounded=0;" vertex="1" parent="1">
          <mxGeometry x="605" y="290" width="140" height="20" as="geometry" />
        </mxCell>
      </root>
    </mxGraphModel>
  </diagram>
</mxfile>
